<?xml version="1.0" encoding="iso-8859-1"?>
<!-- Generator: Adobe Illustrator 19.0.0, SVG Export Plug-In . SVG Version: 6.00 Build 0)  -->
<svg version="1.1" id="Layer_1" xmlns="http://www.w3.org/2000/svg" xmlns:xlink="http://www.w3.org/1999/xlink" x="0px" y="0px"
	 viewBox="0 0 512 512" style="enable-background:new 0 0 512 512;" xml:space="preserve">
<g>
	<g>
		<path d="M458.957,200.415c-19.802-36.47-58.449-61.284-102.783-61.284c-42.316,0-79.45,22.607-99.962,56.376h-60.705v120.988
			h17.754c-14.977,14.226-35.196,22.984-57.434,22.984c-28.898,0-54.407-14.765-69.397-37.14
			c14.982-9.983,24.875-27.025,24.875-46.338c0-30.687-24.966-55.652-55.652-55.652C24.966,200.348,0,225.313,0,256
			c0,29.812,23.563,54.217,53.043,55.585c19.802,36.47,58.449,61.284,102.783,61.284c42.316,0,79.45-22.606,99.962-56.376h60.705
			V195.506h-17.755c14.977-14.226,35.197-22.984,57.435-22.984c28.897,0,54.407,14.765,69.396,37.14
			c-14.98,9.983-24.874,27.025-24.874,46.338c0,30.687,24.966,55.652,55.652,55.652C487.034,311.652,512,286.687,512,256
			C512,226.188,488.437,201.783,458.957,200.415z M55.652,278.261c-12.275,0-22.261-9.986-22.261-22.261
			c0-12.275,9.986-22.261,22.261-22.261c12.275,0,22.261,9.986,22.261,22.261C77.913,268.275,67.927,278.261,55.652,278.261z
			 M283.103,283.102h-54.205v-54.204h54.205V283.102z M456.348,278.261c-12.275,0-22.261-9.986-22.261-22.261
			c0-12.275,9.986-22.261,22.261-22.261s22.261,9.986,22.261,22.261C478.609,268.275,468.622,278.261,456.348,278.261z"/>
	</g>
</g>
<g>
</g>
<g>
</g>
<g>
</g>
<g>
</g>
<g>
</g>
<g>
</g>
<g>
</g>
<g>
</g>
<g>
</g>
<g>
</g>
<g>
</g>
<g>
</g>
<g>
</g>
<g>
</g>
<g>
</g>
</svg>
